<mxfile host="app.diagrams.net" agent="Mozilla/5.0 (Windows NT 10.0; Win64; x64) AppleWebKit/537.36 (KHTML, like Gecko) Chrome/138.0.0.0 Safari/537.36" version="28.0.9">
  <diagram name="หน้า-1" id="CPHWe-9sQcwCp3oJGKF0">
    <mxGraphModel dx="1358" dy="748" grid="1" gridSize="10" guides="1" tooltips="1" connect="1" arrows="1" fold="1" page="1" pageScale="1" pageWidth="827" pageHeight="1169" math="0" shadow="0">
      <root>
        <mxCell id="0" />
        <mxCell id="1" parent="0" />
        <mxCell id="vSDjQ1r7l6yyEmx94oz6-3" value="" style="edgeStyle=orthogonalEdgeStyle;rounded=0;orthogonalLoop=1;jettySize=auto;html=1;" edge="1" parent="1" source="vSDjQ1r7l6yyEmx94oz6-1" target="vSDjQ1r7l6yyEmx94oz6-2">
          <mxGeometry relative="1" as="geometry" />
        </mxCell>
        <mxCell id="vSDjQ1r7l6yyEmx94oz6-1" value="เริ่ม" style="strokeWidth=2;html=1;shape=mxgraph.flowchart.terminator;whiteSpace=wrap;" vertex="1" parent="1">
          <mxGeometry x="364" y="40" width="100" height="60" as="geometry" />
        </mxCell>
        <mxCell id="vSDjQ1r7l6yyEmx94oz6-5" value="" style="edgeStyle=orthogonalEdgeStyle;rounded=0;orthogonalLoop=1;jettySize=auto;html=1;" edge="1" parent="1" source="vSDjQ1r7l6yyEmx94oz6-2" target="vSDjQ1r7l6yyEmx94oz6-4">
          <mxGeometry relative="1" as="geometry" />
        </mxCell>
        <mxCell id="vSDjQ1r7l6yyEmx94oz6-2" value="กำหนดคะแนนผู้เล่น 100คะแนน&lt;div&gt;กำหนดตัวแปรNไว้เก็บตัวเลขที่สุ่ม&lt;/div&gt;" style="rounded=0;whiteSpace=wrap;html=1;" vertex="1" parent="1">
          <mxGeometry x="317" y="140" width="194" height="70" as="geometry" />
        </mxCell>
        <mxCell id="vSDjQ1r7l6yyEmx94oz6-11" value="" style="edgeStyle=orthogonalEdgeStyle;rounded=0;orthogonalLoop=1;jettySize=auto;html=1;" edge="1" parent="1" source="vSDjQ1r7l6yyEmx94oz6-4" target="vSDjQ1r7l6yyEmx94oz6-6">
          <mxGeometry relative="1" as="geometry" />
        </mxCell>
        <mxCell id="vSDjQ1r7l6yyEmx94oz6-4" value="do you want to play game (play=1 , exit= -1)" style="strokeWidth=2;html=1;shape=mxgraph.flowchart.display;whiteSpace=wrap;" vertex="1" parent="1">
          <mxGeometry x="327.5" y="270" width="173" height="60" as="geometry" />
        </mxCell>
        <mxCell id="vSDjQ1r7l6yyEmx94oz6-9" value="" style="edgeStyle=orthogonalEdgeStyle;rounded=0;orthogonalLoop=1;jettySize=auto;html=1;" edge="1" parent="1" source="vSDjQ1r7l6yyEmx94oz6-6" target="vSDjQ1r7l6yyEmx94oz6-8">
          <mxGeometry relative="1" as="geometry" />
        </mxCell>
        <mxCell id="vSDjQ1r7l6yyEmx94oz6-6" value="ตรวจสอบว่าเป็นตัวเลขหรือเปล่า และเป็น 1 , -1 ไหม" style="rounded=0;whiteSpace=wrap;html=1;" vertex="1" parent="1">
          <mxGeometry x="354" y="380" width="120" height="60" as="geometry" />
        </mxCell>
        <mxCell id="vSDjQ1r7l6yyEmx94oz6-67" value="" style="edgeStyle=orthogonalEdgeStyle;rounded=0;orthogonalLoop=1;jettySize=auto;html=1;" edge="1" parent="1" source="vSDjQ1r7l6yyEmx94oz6-8" target="vSDjQ1r7l6yyEmx94oz6-17">
          <mxGeometry relative="1" as="geometry" />
        </mxCell>
        <mxCell id="vSDjQ1r7l6yyEmx94oz6-8" value="เป็นตัวเลข 1 , -1ไหม" style="rhombus;whiteSpace=wrap;html=1;" vertex="1" parent="1">
          <mxGeometry x="355" y="480" width="118" height="90" as="geometry" />
        </mxCell>
        <mxCell id="vSDjQ1r7l6yyEmx94oz6-10" value="" style="ellipse;whiteSpace=wrap;html=1;aspect=fixed;" vertex="1" parent="1">
          <mxGeometry x="409" y="350" width="10" height="10" as="geometry" />
        </mxCell>
        <mxCell id="vSDjQ1r7l6yyEmx94oz6-12" value="please enter only 1 or -1" style="strokeWidth=2;html=1;shape=mxgraph.flowchart.display;whiteSpace=wrap;" vertex="1" parent="1">
          <mxGeometry x="530" y="380" width="160" height="60" as="geometry" />
        </mxCell>
        <mxCell id="vSDjQ1r7l6yyEmx94oz6-13" style="edgeStyle=orthogonalEdgeStyle;rounded=0;orthogonalLoop=1;jettySize=auto;html=1;entryX=0.546;entryY=1.041;entryDx=0;entryDy=0;entryPerimeter=0;" edge="1" parent="1" source="vSDjQ1r7l6yyEmx94oz6-8" target="vSDjQ1r7l6yyEmx94oz6-12">
          <mxGeometry relative="1" as="geometry" />
        </mxCell>
        <mxCell id="vSDjQ1r7l6yyEmx94oz6-14" style="edgeStyle=orthogonalEdgeStyle;rounded=0;orthogonalLoop=1;jettySize=auto;html=1;entryX=1;entryY=0.5;entryDx=0;entryDy=0;entryPerimeter=0;" edge="1" parent="1" source="vSDjQ1r7l6yyEmx94oz6-12" target="vSDjQ1r7l6yyEmx94oz6-4">
          <mxGeometry relative="1" as="geometry">
            <Array as="points">
              <mxPoint x="620" y="300" />
            </Array>
          </mxGeometry>
        </mxCell>
        <mxCell id="vSDjQ1r7l6yyEmx94oz6-15" value="N" style="text;html=1;align=center;verticalAlign=middle;whiteSpace=wrap;rounded=0;" vertex="1" parent="1">
          <mxGeometry x="451" y="490" width="60" height="30" as="geometry" />
        </mxCell>
        <mxCell id="vSDjQ1r7l6yyEmx94oz6-16" value="Y" style="text;html=1;align=center;verticalAlign=middle;whiteSpace=wrap;rounded=0;" vertex="1" parent="1">
          <mxGeometry x="355" y="550" width="60" height="30" as="geometry" />
        </mxCell>
        <mxCell id="vSDjQ1r7l6yyEmx94oz6-22" value="" style="edgeStyle=orthogonalEdgeStyle;rounded=0;orthogonalLoop=1;jettySize=auto;html=1;" edge="1" parent="1" source="vSDjQ1r7l6yyEmx94oz6-17" target="vSDjQ1r7l6yyEmx94oz6-20">
          <mxGeometry relative="1" as="geometry">
            <Array as="points">
              <mxPoint x="414" y="780" />
              <mxPoint x="414" y="780" />
            </Array>
          </mxGeometry>
        </mxCell>
        <mxCell id="vSDjQ1r7l6yyEmx94oz6-76" style="edgeStyle=orthogonalEdgeStyle;rounded=0;orthogonalLoop=1;jettySize=auto;html=1;entryX=0;entryY=0.5;entryDx=0;entryDy=0;" edge="1" parent="1" source="vSDjQ1r7l6yyEmx94oz6-17" target="vSDjQ1r7l6yyEmx94oz6-72">
          <mxGeometry relative="1" as="geometry">
            <Array as="points">
              <mxPoint x="180" y="685" />
              <mxPoint x="180" y="2055" />
            </Array>
          </mxGeometry>
        </mxCell>
        <mxCell id="vSDjQ1r7l6yyEmx94oz6-17" value="เป็นเลข1" style="rhombus;whiteSpace=wrap;html=1;" vertex="1" parent="1">
          <mxGeometry x="342" y="630" width="144" height="110" as="geometry" />
        </mxCell>
        <mxCell id="vSDjQ1r7l6yyEmx94oz6-24" value="" style="edgeStyle=orthogonalEdgeStyle;rounded=0;orthogonalLoop=1;jettySize=auto;html=1;" edge="1" parent="1" source="vSDjQ1r7l6yyEmx94oz6-20" target="vSDjQ1r7l6yyEmx94oz6-23">
          <mxGeometry relative="1" as="geometry" />
        </mxCell>
        <mxCell id="vSDjQ1r7l6yyEmx94oz6-20" value="โมดูล 1" style="shape=process;whiteSpace=wrap;html=1;backgroundOutline=1;" vertex="1" parent="1">
          <mxGeometry x="353" y="790" width="120" height="60" as="geometry" />
        </mxCell>
        <mxCell id="vSDjQ1r7l6yyEmx94oz6-21" value="&lt;h1 style=&quot;margin-top: 0px;&quot;&gt;โมดูล 1&lt;/h1&gt;&lt;div&gt;กำหนดคะแนนผู้เล่น = 100&lt;/div&gt;&lt;div&gt;สุ่มตัวเลข ใน 1-100 โดยเก็บไว้ในตัวแปร N&amp;nbsp;&lt;/div&gt;" style="text;html=1;whiteSpace=wrap;overflow=hidden;rounded=0;" vertex="1" parent="1">
          <mxGeometry x="900" y="30" width="180" height="120" as="geometry" />
        </mxCell>
        <mxCell id="vSDjQ1r7l6yyEmx94oz6-26" value="" style="edgeStyle=orthogonalEdgeStyle;rounded=0;orthogonalLoop=1;jettySize=auto;html=1;" edge="1" parent="1" source="vSDjQ1r7l6yyEmx94oz6-23" target="vSDjQ1r7l6yyEmx94oz6-25">
          <mxGeometry relative="1" as="geometry" />
        </mxCell>
        <mxCell id="vSDjQ1r7l6yyEmx94oz6-23" value="Guess the winning number (1-100) :" style="strokeWidth=2;html=1;shape=mxgraph.flowchart.display;whiteSpace=wrap;" vertex="1" parent="1">
          <mxGeometry x="296.5" y="900" width="233" height="60" as="geometry" />
        </mxCell>
        <mxCell id="vSDjQ1r7l6yyEmx94oz6-29" value="" style="edgeStyle=orthogonalEdgeStyle;rounded=0;orthogonalLoop=1;jettySize=auto;html=1;" edge="1" parent="1" source="vSDjQ1r7l6yyEmx94oz6-25" target="vSDjQ1r7l6yyEmx94oz6-28">
          <mxGeometry relative="1" as="geometry" />
        </mxCell>
        <mxCell id="vSDjQ1r7l6yyEmx94oz6-25" value="รับค่าตัวเลขจากที่ผู้เล่นพิมพ์" style="rounded=0;whiteSpace=wrap;html=1;" vertex="1" parent="1">
          <mxGeometry x="353" y="1010" width="120" height="60" as="geometry" />
        </mxCell>
        <mxCell id="vSDjQ1r7l6yyEmx94oz6-37" value="" style="edgeStyle=orthogonalEdgeStyle;rounded=0;orthogonalLoop=1;jettySize=auto;html=1;" edge="1" parent="1" source="vSDjQ1r7l6yyEmx94oz6-27" target="vSDjQ1r7l6yyEmx94oz6-36">
          <mxGeometry relative="1" as="geometry" />
        </mxCell>
        <mxCell id="vSDjQ1r7l6yyEmx94oz6-27" value="โมดูล 2" style="shape=process;whiteSpace=wrap;html=1;backgroundOutline=1;" vertex="1" parent="1">
          <mxGeometry x="353" y="1240" width="120" height="60" as="geometry" />
        </mxCell>
        <mxCell id="vSDjQ1r7l6yyEmx94oz6-33" value="" style="edgeStyle=orthogonalEdgeStyle;rounded=0;orthogonalLoop=1;jettySize=auto;html=1;" edge="1" parent="1" source="vSDjQ1r7l6yyEmx94oz6-28" target="vSDjQ1r7l6yyEmx94oz6-27">
          <mxGeometry relative="1" as="geometry" />
        </mxCell>
        <mxCell id="vSDjQ1r7l6yyEmx94oz6-56" style="edgeStyle=orthogonalEdgeStyle;rounded=0;orthogonalLoop=1;jettySize=auto;html=1;entryX=1;entryY=0.5;entryDx=0;entryDy=0;" edge="1" parent="1" source="vSDjQ1r7l6yyEmx94oz6-28" target="vSDjQ1r7l6yyEmx94oz6-52">
          <mxGeometry relative="1" as="geometry">
            <Array as="points">
              <mxPoint x="610" y="1160" />
              <mxPoint x="610" y="1575" />
            </Array>
          </mxGeometry>
        </mxCell>
        <mxCell id="vSDjQ1r7l6yyEmx94oz6-28" value="ผิดใช่ไหม" style="rhombus;whiteSpace=wrap;html=1;" vertex="1" parent="1">
          <mxGeometry x="373" y="1120" width="80" height="80" as="geometry" />
        </mxCell>
        <mxCell id="vSDjQ1r7l6yyEmx94oz6-31" value="&lt;h1 style=&quot;margin-top: 0px;&quot;&gt;โมดูล 2&amp;nbsp;&lt;/h1&gt;&lt;h1 style=&quot;margin-top: 0px;&quot;&gt;&lt;span style=&quot;background-color: transparent; color: light-dark(rgb(0, 0, 0), rgb(255, 255, 255)); font-size: 12px; font-weight: normal;&quot;&gt;คะแนนใหม่ = คะแนน -10​&lt;/span&gt;&lt;/h1&gt;&lt;div&gt;ถ้าคำตอบมากกว่าตัวเลขที่สุ่ม ให้แสดงมากเกิน ไปและกำหนดขอบเขตใหม่ในช่วงที่ตอบ&lt;/div&gt;&lt;div&gt;ถ้าคำตอบน้อยกว่าตัวเลขที่สุ่ม ให้แสดงน้อยเกิน ไปและกำหนดขอบเขตใหม่ในช่วงที่ตอบ&lt;/div&gt;" style="text;html=1;whiteSpace=wrap;overflow=hidden;rounded=0;" vertex="1" parent="1">
          <mxGeometry x="900" y="190" width="490" height="120" as="geometry" />
        </mxCell>
        <mxCell id="vSDjQ1r7l6yyEmx94oz6-32" value="" style="ellipse;whiteSpace=wrap;html=1;aspect=fixed;" vertex="1" parent="1">
          <mxGeometry x="408" y="1210" width="10" height="10" as="geometry" />
        </mxCell>
        <mxCell id="vSDjQ1r7l6yyEmx94oz6-34" value="Y" style="text;html=1;align=center;verticalAlign=middle;whiteSpace=wrap;rounded=0;" vertex="1" parent="1">
          <mxGeometry x="364" y="1180" width="60" height="30" as="geometry" />
        </mxCell>
        <mxCell id="vSDjQ1r7l6yyEmx94oz6-35" value="N" style="text;html=1;align=center;verticalAlign=middle;whiteSpace=wrap;rounded=0;" vertex="1" parent="1">
          <mxGeometry x="430" y="1110" width="60" height="30" as="geometry" />
        </mxCell>
        <mxCell id="vSDjQ1r7l6yyEmx94oz6-46" value="" style="edgeStyle=orthogonalEdgeStyle;rounded=0;orthogonalLoop=1;jettySize=auto;html=1;" edge="1" parent="1" source="vSDjQ1r7l6yyEmx94oz6-36" target="vSDjQ1r7l6yyEmx94oz6-45">
          <mxGeometry relative="1" as="geometry" />
        </mxCell>
        <mxCell id="vSDjQ1r7l6yyEmx94oz6-78" style="edgeStyle=orthogonalEdgeStyle;rounded=0;orthogonalLoop=1;jettySize=auto;html=1;entryX=1;entryY=0.5;entryDx=0;entryDy=0;" edge="1" parent="1" source="vSDjQ1r7l6yyEmx94oz6-36" target="vSDjQ1r7l6yyEmx94oz6-72">
          <mxGeometry relative="1" as="geometry">
            <Array as="points">
              <mxPoint x="680" y="1390" />
              <mxPoint x="680" y="2055" />
            </Array>
          </mxGeometry>
        </mxCell>
        <mxCell id="vSDjQ1r7l6yyEmx94oz6-36" value="คะแนนเหลืออยู่ไหม" style="rhombus;whiteSpace=wrap;html=1;" vertex="1" parent="1">
          <mxGeometry x="359.5" y="1350" width="107" height="80" as="geometry" />
        </mxCell>
        <mxCell id="vSDjQ1r7l6yyEmx94oz6-43" value="Y" style="text;html=1;align=center;verticalAlign=middle;whiteSpace=wrap;rounded=0;" vertex="1" parent="1">
          <mxGeometry x="393" y="1420" width="60" height="30" as="geometry" />
        </mxCell>
        <mxCell id="vSDjQ1r7l6yyEmx94oz6-44" value="N" style="text;html=1;align=center;verticalAlign=middle;whiteSpace=wrap;rounded=0;" vertex="1" parent="1">
          <mxGeometry x="437" y="1350" width="60" height="30" as="geometry" />
        </mxCell>
        <mxCell id="vSDjQ1r7l6yyEmx94oz6-47" style="edgeStyle=orthogonalEdgeStyle;rounded=0;orthogonalLoop=1;jettySize=auto;html=1;entryX=1;entryY=0.5;entryDx=0;entryDy=0;" edge="1" parent="1" source="vSDjQ1r7l6yyEmx94oz6-45" target="vSDjQ1r7l6yyEmx94oz6-32">
          <mxGeometry relative="1" as="geometry">
            <Array as="points">
              <mxPoint x="580" y="1510" />
              <mxPoint x="580" y="1215" />
            </Array>
          </mxGeometry>
        </mxCell>
        <mxCell id="vSDjQ1r7l6yyEmx94oz6-53" value="" style="edgeStyle=orthogonalEdgeStyle;rounded=0;orthogonalLoop=1;jettySize=auto;html=1;" edge="1" parent="1" source="vSDjQ1r7l6yyEmx94oz6-45" target="vSDjQ1r7l6yyEmx94oz6-50">
          <mxGeometry relative="1" as="geometry" />
        </mxCell>
        <mxCell id="vSDjQ1r7l6yyEmx94oz6-45" value="ถูกไหม" style="rhombus;whiteSpace=wrap;html=1;" vertex="1" parent="1">
          <mxGeometry x="359.5" y="1470" width="107" height="80" as="geometry" />
        </mxCell>
        <mxCell id="vSDjQ1r7l6yyEmx94oz6-48" value="N" style="text;html=1;align=center;verticalAlign=middle;whiteSpace=wrap;rounded=0;" vertex="1" parent="1">
          <mxGeometry x="440.5" y="1490" width="60" height="30" as="geometry" />
        </mxCell>
        <mxCell id="vSDjQ1r7l6yyEmx94oz6-49" value="Y" style="text;html=1;align=center;verticalAlign=middle;whiteSpace=wrap;rounded=0;" vertex="1" parent="1">
          <mxGeometry x="359" y="1530" width="60" height="30" as="geometry" />
        </mxCell>
        <mxCell id="vSDjQ1r7l6yyEmx94oz6-58" value="" style="edgeStyle=orthogonalEdgeStyle;rounded=0;orthogonalLoop=1;jettySize=auto;html=1;" edge="1" parent="1" source="vSDjQ1r7l6yyEmx94oz6-50" target="vSDjQ1r7l6yyEmx94oz6-57">
          <mxGeometry relative="1" as="geometry" />
        </mxCell>
        <mxCell id="vSDjQ1r7l6yyEmx94oz6-50" value="That is correct! The winning number is : (ตัวแปร N)&lt;div&gt;Score this game: (คะแนนที่เหลือ)&lt;/div&gt;" style="strokeWidth=2;html=1;shape=mxgraph.flowchart.display;whiteSpace=wrap;" vertex="1" parent="1">
          <mxGeometry x="259.5" y="1600" width="307" height="60" as="geometry" />
        </mxCell>
        <mxCell id="vSDjQ1r7l6yyEmx94oz6-52" value="" style="ellipse;whiteSpace=wrap;html=1;aspect=fixed;" vertex="1" parent="1">
          <mxGeometry x="408" y="1570" width="10" height="10" as="geometry" />
        </mxCell>
        <mxCell id="vSDjQ1r7l6yyEmx94oz6-60" value="" style="edgeStyle=orthogonalEdgeStyle;rounded=0;orthogonalLoop=1;jettySize=auto;html=1;" edge="1" parent="1" source="vSDjQ1r7l6yyEmx94oz6-57">
          <mxGeometry relative="1" as="geometry">
            <mxPoint x="413" y="1820" as="targetPoint" />
          </mxGeometry>
        </mxCell>
        <mxCell id="vSDjQ1r7l6yyEmx94oz6-57" value="Do you want to play game (1=play,-1=exit) :" style="strokeWidth=2;html=1;shape=mxgraph.flowchart.display;whiteSpace=wrap;" vertex="1" parent="1">
          <mxGeometry x="284.5" y="1710" width="257" height="60" as="geometry" />
        </mxCell>
        <mxCell id="vSDjQ1r7l6yyEmx94oz6-64" value="" style="edgeStyle=orthogonalEdgeStyle;rounded=0;orthogonalLoop=1;jettySize=auto;html=1;" edge="1" parent="1" source="vSDjQ1r7l6yyEmx94oz6-62" target="vSDjQ1r7l6yyEmx94oz6-63">
          <mxGeometry relative="1" as="geometry" />
        </mxCell>
        <mxCell id="vSDjQ1r7l6yyEmx94oz6-62" value="ตรวจสอบว่าเป็นตัวเลข 1 หรือ -1 ไหม" style="rounded=0;whiteSpace=wrap;html=1;" vertex="1" parent="1">
          <mxGeometry x="354" y="1820" width="120" height="60" as="geometry" />
        </mxCell>
        <mxCell id="vSDjQ1r7l6yyEmx94oz6-65" style="edgeStyle=orthogonalEdgeStyle;rounded=0;orthogonalLoop=1;jettySize=auto;html=1;entryX=1;entryY=0.5;entryDx=0;entryDy=0;" edge="1" parent="1" source="vSDjQ1r7l6yyEmx94oz6-63" target="vSDjQ1r7l6yyEmx94oz6-66">
          <mxGeometry relative="1" as="geometry">
            <mxPoint x="760" y="600" as="targetPoint" />
            <Array as="points">
              <mxPoint x="750" y="1975" />
              <mxPoint x="750" y="595" />
            </Array>
          </mxGeometry>
        </mxCell>
        <mxCell id="vSDjQ1r7l6yyEmx94oz6-73" value="" style="edgeStyle=orthogonalEdgeStyle;rounded=0;orthogonalLoop=1;jettySize=auto;html=1;" edge="1" parent="1" source="vSDjQ1r7l6yyEmx94oz6-63" target="vSDjQ1r7l6yyEmx94oz6-70">
          <mxGeometry relative="1" as="geometry" />
        </mxCell>
        <mxCell id="vSDjQ1r7l6yyEmx94oz6-63" value="ใส่ตัวเลข -1 ใช่ไหม" style="rhombus;whiteSpace=wrap;html=1;" vertex="1" parent="1">
          <mxGeometry x="330.5" y="1920" width="167" height="110" as="geometry" />
        </mxCell>
        <mxCell id="vSDjQ1r7l6yyEmx94oz6-66" value="" style="ellipse;whiteSpace=wrap;html=1;aspect=fixed;" vertex="1" parent="1">
          <mxGeometry x="409" y="590" width="10" height="10" as="geometry" />
        </mxCell>
        <mxCell id="vSDjQ1r7l6yyEmx94oz6-68" value="N" style="text;html=1;align=center;verticalAlign=middle;whiteSpace=wrap;rounded=0;" vertex="1" parent="1">
          <mxGeometry x="451" y="1930" width="60" height="30" as="geometry" />
        </mxCell>
        <mxCell id="vSDjQ1r7l6yyEmx94oz6-69" value="Y" style="text;html=1;align=center;verticalAlign=middle;whiteSpace=wrap;rounded=0;" vertex="1" parent="1">
          <mxGeometry x="333" y="2000" width="60" height="30" as="geometry" />
        </mxCell>
        <mxCell id="vSDjQ1r7l6yyEmx94oz6-70" value="see you again." style="strokeWidth=2;html=1;shape=mxgraph.flowchart.display;whiteSpace=wrap;" vertex="1" parent="1">
          <mxGeometry x="333" y="2090" width="164" height="60" as="geometry" />
        </mxCell>
        <mxCell id="vSDjQ1r7l6yyEmx94oz6-72" value="" style="ellipse;whiteSpace=wrap;html=1;aspect=fixed;" vertex="1" parent="1">
          <mxGeometry x="409" y="2050" width="10" height="10" as="geometry" />
        </mxCell>
        <mxCell id="vSDjQ1r7l6yyEmx94oz6-74" value="Y" style="text;html=1;align=center;verticalAlign=middle;whiteSpace=wrap;rounded=0;" vertex="1" parent="1">
          <mxGeometry x="404" y="730" width="60" height="30" as="geometry" />
        </mxCell>
        <mxCell id="vSDjQ1r7l6yyEmx94oz6-75" value="N" style="text;html=1;align=center;verticalAlign=middle;whiteSpace=wrap;rounded=0;" vertex="1" parent="1">
          <mxGeometry x="330.5" y="700" width="60" height="30" as="geometry" />
        </mxCell>
      </root>
    </mxGraphModel>
  </diagram>
</mxfile>
